# xmcd CD database file
#
# Track frame offsets:
#	150
#	13165
#	24676
#	36677
#	48078
#	58795
#	68385
#	81064
#	90628
#	100278
#	110991
#	122421
#	133668
#	145429
#	159503
#	172812
#	182765
#	195146
#
# Disc length: 2775 seconds
#
# Revision: 0
# Processed by: cddbd v1.5.2PL0 Copyright (c) Steve Scherf et al.
# Submitted via: CDex 1.51
#
DISCID=f10ad512
DTITLE=Joe Bushkin - Seven Classic Albums - CD 4
DYEAR=1900
DGENRE=Jazz
TTITLE0=A Foggy Day
TTITLE1=Who Cares
TTITLE2=They Can't Take That Away From Me
TTITLE3=At Sundown
TTITLE4=They All Laughed
TTITLE5=The Lady Is A Tramp
TTITLE6=Listen To The Quiet
TTITLE7=Two Sleepy People
TTITLE8=In The Wee Small Hours Of The Morning
TTITLE9=Dream Along With Me
TTITLE10=Street Of Dreams
TTITLE11=Three O'Clock In The Morning
TTITLE12=Moonlight Becomes You
TTITLE13=Sleepy Time Gal
TTITLE14=The Parties Over
TTITLE15=Put Your Dreams Away
TTITLE16=Lets Put Out The Lights And Go To Sleep
TTITLE17=Good Night Sweetheart
EXTD=
EXTT0=
EXTT1=
EXTT2=
EXTT3=
EXTT4=
EXTT5=
EXTT6=
EXTT7=
EXTT8=
EXTT9=
EXTT10=
EXTT11=
EXTT12=
EXTT13=
EXTT14=
EXTT15=
EXTT16=
EXTT17=
PLAYORDER=
